<svg id="Layer_1" data-name="Layer 1" xmlns="http://www.w3.org/2000/svg" viewBox="0 0 1185 1240"><defs><style>.cls-1{fill:#2e3192;stroke-width:9px;}.cls-1,.cls-9{stroke:#000;}.cls-1,.cls-10,.cls-2,.cls-3,.cls-4,.cls-5,.cls-6,.cls-7,.cls-8,.cls-9{stroke-miterlimit:10;}.cls-2{fill:#fff;}.cls-10,.cls-2,.cls-3,.cls-4,.cls-5,.cls-6,.cls-7,.cls-8{stroke:#fff;stroke-width:4px;}.cls-3{fill:#006837;}.cls-4{fill:#fbae17;}.cls-5{fill:#88a80d;}.cls-6{fill:#7f47dd;}.cls-7{fill:#0071bc;}.cls-8{fill:aqua;}.cls-9{fill:none;stroke-width:10px;}.cls-11{font-size:104.53px;}.cls-11,.cls-12,.cls-16,.cls-19{font-family:MyriadPro-Regular, Myriad Pro;}.cls-12{font-size:76.62px;}.cls-13{letter-spacing:-0.04em;}.cls-14{letter-spacing:0.02em;}.cls-15{letter-spacing:-0.01em;}.cls-16{font-size:85.73px;}.cls-17{letter-spacing:-0.04em;}.cls-18{letter-spacing:-0.01em;}.cls-19{font-size:67.93px;}.cls-20{letter-spacing:0em;}.cls-21{letter-spacing:0em;}.cls-22{letter-spacing:0.01em;}.cls-23{letter-spacing:-0.02em;}.cls-24{letter-spacing:-0.01em;}</style></defs><circle id="WheelBase" class="cls-1" cx="592.5" cy="647.5" r="588"/><g id="Wheel"><polygon class="cls-2" points="592.06 646.82 591.5 647.14 591.5 646.5 592.06 646.82"/><path class="cls-3" d="M1308.5,1036.5v.64l-466,269a541.13,541.13,0,0,1-3.31-540.63Z" transform="translate(-717 -390)"/><path class="cls-4" d="M1778.82,765.6l-469.76,271.22-.56-.32v-544h.5C1510.24,492.5,1685.78,602.48,1778.82,765.6Z" transform="translate(-717 -390)"/><path class="cls-5" d="M1308.5,492.5v544l-469.29-271C932.18,602.59,1107.49,492.69,1308.5,492.5Z" transform="translate(-717 -390)"/><path class="cls-6" d="M1849.5,1033a538.06,538.06,0,0,1-74,273.13l-466.45-269.31L1778.82,765.6A538,538,0,0,1,1849.5,1033Z" transform="translate(-717 -390)"/><path class="cls-7" d="M1308.5,1037.14V1573.5c-198.64-.18-372.19-107.52-466-267.32Z" transform="translate(-717 -390)"/><path class="cls-8" d="M1775.51,1306.13c-93.86,160-267.64,267.37-466.51,267.37h-.5V1037.14l.56-.32Z" transform="translate(-717 -390)"/></g><circle id="WheelBase2" class="cls-9" cx="592.5" cy="645.5" r="540"/><polygon id="Arrow" class="cls-10" points="593 172.72 691.56 2 494.44 2 593 172.72"/><text class="cls-11" transform="translate(337.32 292.93) rotate(51.77) scale(0.95 1)">$100</text><text class="cls-11" transform="translate(805.94 257.31) rotate(127.35) scale(0.95 1)">$1000</text><text class="cls-12" transform="translate(1038.93 626.16) rotate(180) scale(0.88 1)"><tspan class="cls-13">T</tspan><tspan class="cls-14" x="34.63" y="0">r</tspan><tspan x="61.6" y="0">y </tspan><tspan class="cls-15" x="113.93" y="0">A</tspan><tspan x="159.91" y="0">gain!</tspan></text><text class="cls-16" transform="translate(132.25 661.57) scale(0.9 1)">+1<tspan class="cls-17" x="95.08" y="0"> </tspan><tspan class="cls-18" x="109.74" y="0">T</tspan><tspan x="151.32" y="0">icket</tspan></text><text class="cls-19" transform="translate(358.91 1024.31) rotate(-52.65)">i<tspan class="cls-20" x="15.89" y="0">P</tspan><tspan class="cls-21" x="51.69" y="0">hone X</tspan></text><text class="cls-19" transform="matrix(-0.46, -0.89, 0.89, -0.46, 834.01, 1056.44)"><tspan class="cls-22">M</tspan><tspan x="55.02" y="0">acbook </tspan><tspan class="cls-23" x="277.69" y="0">P</tspan><tspan class="cls-24" x="312.74" y="0">r</tspan><tspan x="334.27" y="0">o</tspan></text></svg>